<svg width="775" height="930" viewBox="0 0 775 930" fill="none" xmlns="http://www.w3.org/2000/svg">
<path d="M387.5 716.875C387.5 748.977 413.667 775.446 445.408 770.649C486.4 764.453 526.259 751.7 563.421 732.765C617.908 705.003 665.05 664.739 700.994 615.267C736.938 565.794 760.663 508.517 770.229 448.118C779.795 387.72 774.931 325.914 756.034 267.756C737.138 209.597 704.745 156.737 661.504 113.496C618.263 70.2555 565.403 37.8625 507.244 18.9656C449.085 0.0687631 387.28 -4.79541 326.882 4.7708C285.687 11.2954 245.944 24.4066 209.139 43.4888C180.64 58.2646 175.029 95.0594 193.898 121.03V121.03C212.767 147.001 248.986 152.083 278.375 139.169C299.602 129.841 322.009 123.242 345.067 119.59C387.346 112.893 430.61 116.298 471.321 129.526C512.032 142.754 549.034 165.429 579.303 195.697C609.571 225.966 632.246 262.968 645.474 303.679C658.702 344.39 662.107 387.654 655.41 429.933C648.714 472.212 632.107 512.306 606.946 546.937C581.785 581.568 548.785 609.752 510.645 629.186C489.844 639.784 467.837 647.616 445.182 652.546C413.814 659.373 387.5 684.773 387.5 716.875V716.875Z" fill="#3E63DD"/>
<path d="M348.3 856.712C337.58 896.722 296.454 920.465 256.444 909.745C216.434 899.024 192.691 857.899 203.411 817.889C214.132 777.879 255.257 754.135 295.267 764.856C335.277 775.577 359.021 816.702 348.3 856.712ZM246.878 829.536C242.59 845.54 252.087 861.99 268.091 866.278C284.095 870.566 300.545 861.069 304.834 845.065C309.122 829.061 299.624 812.611 283.62 808.323C267.616 804.034 251.166 813.532 246.878 829.536Z" fill="#3E63DD"/>
<path d="M314.679 692.411L348.3 817.889L222.823 784.267L314.679 692.411Z" fill="#3E63DD"/>
<circle cx="387" cy="388" r="256" fill="#2D92FF"/>
<path d="M257.59 609.043C260.017 610.349 264.889 612.602 268.932 614.573C272.941 616.527 277.65 617.479 283.195 619.456C287.056 620.833 292.101 621.613 298.398 623.491C303.166 624.913 310.664 627.053 318.109 629.123C325.947 631.302 338.834 632.696 344.303 633.35C349.579 633.98 355.369 636.075 359.79 636.822C365.214 637.737 368.706 639.454 372.558 640.108C377.208 640.896 382.03 641.516 386.074 642.175C390.624 642.916 399.264 642.834 405.876 641.994C411.523 641.278 414.515 638.339 417.99 636.551C421.351 634.821 423.717 631.773 425.319 628.205C426.11 626.444 425.981 622.959 425.702 618.926C425.406 614.638 419.741 611.382 414.061 608.117L413.892 608.02C409.974 605.768 406.664 603.794 403.933 601.076C400.772 597.932 400.638 591.066 400.17 583.829C399.972 580.753 400.075 575.545 399.796 573.236C399.517 570.926 398.96 571.67 398.022 572.703C393.78 577.378 390.14 579.746 387.507 582.469C384.644 585.43 380.758 586.696 376.438 587.639C372.149 588.576 367.252 589.14 360.869 589.799C351.325 590.784 347.158 588.96 341.34 587.833C334.672 586.542 329.328 586.515 321.37 586.048C302.502 584.94 294.996 586.515 285.428 586.983C272.045 587.637 262.478 587.636 261.073 588.853C258.244 591.302 256.846 595.132 255.528 599.17C255.145 600.346 255.337 601.879 255.802 602.738C256.266 603.597 257.195 603.783 257.953 604.25C258.71 604.717 255.889 607.714 257.59 609.043Z" fill="#D8EFE2"/>
<path d="M413.892 608.02C409.974 605.768 406.664 603.794 403.933 601.076C400.772 597.932 400.638 591.066 400.17 583.829C399.972 580.753 400.075 575.545 399.796 573.236C399.517 570.926 398.96 571.67 398.022 572.703C393.78 577.378 390.14 579.746 387.507 582.469C384.644 585.43 380.758 586.696 376.438 587.639C372.149 588.576 367.252 589.14 360.869 589.799C351.325 590.784 347.158 588.96 341.34 587.833C334.672 586.542 329.328 586.515 321.37 586.048C302.502 584.94 294.996 586.515 285.428 586.983C272.045 587.637 262.478 587.636 261.073 588.853C258.244 591.302 256.846 595.132 255.528 599.17C255.145 600.346 255.337 601.879 255.802 602.738C256.266 603.597 257.195 603.783 257.953 604.25C258.71 604.717 255.889 607.714 257.59 609.043C260.017 610.349 264.889 612.602 268.932 614.573C272.941 616.527 277.65 617.479 283.195 619.456C287.056 620.833 292.101 621.613 298.398 623.491C303.166 624.913 310.664 627.053 318.109 629.123C325.947 631.302 338.834 632.696 344.303 633.35C349.579 633.98 355.369 636.075 359.79 636.822C365.214 637.737 368.706 639.454 372.558 640.108C377.208 640.896 382.03 641.516 386.074 642.175C390.624 642.916 399.264 642.834 405.876 641.994C411.523 641.278 414.515 638.339 417.99 636.551C421.351 634.821 423.717 631.773 425.319 628.205C426.11 626.444 425.981 622.959 425.702 618.926C425.406 614.638 419.741 611.382 414.061 608.117M413.892 608.02L414.061 608.117M413.892 608.02C413.949 608.053 414.005 608.085 414.061 608.117" stroke="#D8EFE2" stroke-width="16" stroke-linecap="round"/>
<path d="M194.376 223.271C193.18 224.065 190.781 227.66 188.472 231.273C186.031 235.093 183.567 238.481 181.159 241.895C178.847 245.175 176.75 248.7 174.048 252.713C171.343 256.729 168.141 261.914 165.43 267.637C163.1 272.555 160.723 276.75 158.814 281.566C156.877 286.452 155.505 291.178 154.203 295.495C152.806 300.129 151.501 306.592 149.397 312.225C147.609 317.011 146.487 321.441 145.285 326.65C143.826 332.972 142.279 339.872 140.978 344.588C139.857 348.65 139.273 352.701 138.97 359.308C138.693 365.34 138.071 371.337 137.768 375.948C137.448 380.803 136.664 399.051 137.163 410.716C137.374 415.629 137.867 430.359 139.063 439.172C139.733 444.106 142.664 447.889 145.072 452.097C147.259 455.921 148.483 460.309 150.482 463.823C152.67 467.669 156.082 471.527 162.081 473.751C173.47 477.973 178.529 480.147 182.136 483.757C188.66 490.287 189.759 497.376 191.863 502.093C193.725 506.266 194.568 511.203 196.97 516.115C197.796 517.805 198.764 520.197 199.672 521.125C202.238 523.751 206.784 516.854 210.592 513.244C213.947 510.064 218.398 507.043 223.213 503.424C227.675 500.071 231.227 496.018 234.84 490.713C240.348 482.624 241.254 476.576 243.262 472.17C246.012 466.134 249.671 459.551 252.577 454.637C255.479 449.73 257.882 445.52 260.792 442.503C263.813 439.369 279.416 441.493 290.039 440.498C296.772 439.867 299.363 432.499 302.474 426.884C305.018 422.292 306.985 416.665 307.893 411.955C308.937 406.538 305.807 398.065 302.696 391.314C300.75 387.091 296.597 382.603 294.075 377.788C291.586 373.035 291.367 367.574 291.262 355.076C291.2 347.707 292.161 343.323 293.162 338.213C294.169 333.072 297.355 324.134 298.476 317.371C299.414 311.709 299.375 307.253 299.678 302.742C300.076 296.833 300.577 288.425 301.28 282.416C302.867 268.86 303.186 261.565 303.685 256.455C303.813 255.147 303.787 253.954 303.192 252.945C300.596 248.54 295.395 245.538 291.677 242.319C287.868 239.022 284.177 234.717 279.855 231.697C276.005 229.006 269.557 226.289 264.228 224.979C259.482 223.811 248.757 223.271 240.885 222.673C236.828 222.365 233.079 218.474 227.761 217.362C221.567 216.066 216.643 216.262 209.732 216.355C204.205 218.059 200.604 219.652 197.493 222.658C196.787 223.464 196.793 221.251 194.376 223.271Z" fill="#44D184" stroke="#44D184" stroke-width="16" stroke-linecap="round"/>
<path d="M516.768 173.834C516.242 173.834 515.64 173.694 514.98 173.499C512.74 172.838 509.827 171.546 506.954 172.951C502.772 174.995 499.613 177.09 496.701 178.695C493.414 180.508 490.453 182.909 484.355 186.104C481.048 187.837 478.528 189.451 472.942 192.572C467.419 195.659 463.558 198.027 459.196 199.85C454.84 201.671 450.909 202.973 447.849 203.924C444.896 204.841 443.049 208.198 441.592 211.62C439.597 216.305 435.346 221.72 433.451 225.358C431.449 229.199 431.699 234.928 432.205 239.246C432.613 242.723 434.604 245.422 435.693 249.13C436.756 252.755 437.221 255.891 437.514 259.526C437.774 262.771 442.15 264.187 446.148 265.857C451.851 268.241 454.512 269.569 458.357 271.164C467.395 274.911 471.086 273.931 474.936 274.873C481.42 276.46 485.899 280.029 494.097 281.346C513.88 284.525 517.322 283.231 520.377 284.109C524.352 285.253 528.514 285.42 532.732 286.288C536.343 287.031 538.555 289.189 542.252 290.216C548.939 292.074 556.395 291.091 561.956 289.935C567.578 288.766 570.1 285.281 572.721 283.248C575.691 280.945 578.387 279.034 581.227 275.693C584.328 272.044 585.514 267.127 586.47 263.116C587.332 259.497 587.844 256.213 590.025 252.936C590.907 251.609 592.354 250.822 593.37 249.59C595.902 246.52 593.531 240.511 592.003 237.595C590.54 234.805 587.573 233.523 584.52 230.618C581.982 228.203 580.01 225.82 578.119 223.491C575.91 220.77 572.604 218.553 570.34 216.148C568.29 213.97 565.764 212.15 562.495 209.535C559.035 206.768 556.892 204.884 552.249 199.586C549.457 196.401 547.157 193.543 544.969 191.142C542.393 188.313 539.224 186.6 536.411 185.079L536.322 185.031C533.027 183.249 530.146 180.894 527.596 178.998C525.02 177.083 522.294 175.799 519.311 174.634C518.508 174.342 517.645 174.054 516.768 173.834Z" fill="#44D184"/>
<path d="M516.768 173.834C517.645 174.054 518.508 174.342 519.311 174.634C522.294 175.799 525.02 177.083 527.596 178.998C530.146 180.894 533.027 183.249 536.322 185.031M516.768 173.834C516.242 173.834 515.64 173.694 514.98 173.499M516.768 173.834C516.235 173.7 515.707 173.594 514.98 173.499M536.322 185.031L536.411 185.079M536.322 185.031C536.352 185.047 536.381 185.063 536.411 185.079M513.265 173.321C513.957 173.38 514.51 173.437 514.98 173.499M514.98 173.499C512.74 172.838 509.827 171.546 506.954 172.951C502.772 174.995 499.613 177.09 496.701 178.695C493.414 180.508 490.453 182.909 484.355 186.104C481.048 187.837 478.528 189.451 472.942 192.572C467.419 195.659 463.558 198.027 459.196 199.85C454.84 201.671 450.909 202.973 447.849 203.924C444.896 204.841 443.049 208.198 441.592 211.62C439.597 216.305 435.346 221.72 433.451 225.358C431.449 229.199 431.699 234.928 432.205 239.246C432.613 242.723 434.604 245.422 435.693 249.13C436.756 252.755 437.221 255.891 437.514 259.526C437.774 262.771 442.15 264.187 446.148 265.857C451.851 268.241 454.512 269.569 458.357 271.164C467.395 274.911 471.086 273.931 474.936 274.873C481.42 276.46 485.899 280.029 494.097 281.346C513.88 284.525 517.322 283.231 520.377 284.109C524.352 285.253 528.514 285.42 532.732 286.288C536.343 287.031 538.555 289.189 542.252 290.216C548.939 292.074 556.395 291.091 561.956 289.935C567.578 288.766 570.1 285.281 572.721 283.248C575.691 280.945 578.387 279.034 581.227 275.693C584.328 272.044 585.514 267.127 586.47 263.116C587.332 259.497 587.844 256.213 590.025 252.936C590.907 251.609 592.354 250.822 593.37 249.59C595.902 246.52 593.531 240.511 592.003 237.595C590.54 234.805 587.573 233.523 584.52 230.618C581.982 228.203 580.01 225.82 578.119 223.491C575.91 220.77 572.604 218.553 570.34 216.148C568.29 213.97 565.764 212.15 562.495 209.535C559.035 206.768 556.892 204.884 552.249 199.586C549.457 196.401 547.157 193.543 544.969 191.142C542.393 188.313 539.224 186.6 536.411 185.079" stroke="#44D184" stroke-width="16" stroke-linecap="round"/>
<path d="M461.962 470.592C457.444 467.626 448.479 460.962 438.746 452.465C433.097 447.534 429.828 443.052 426.417 438.049C423.145 433.25 420.956 423.467 418.557 410.986C415.521 395.19 419.617 388.254 421.661 383.718C422.894 380.98 427.023 378.205 433.054 373.98C439.96 369.142 444.043 369.9 449.561 368.879C453.445 368.161 465.329 368.295 473.414 369.453C479.222 370.285 490.244 377.856 495.731 381.299C499.02 383.364 509.401 383.125 515.799 382.547C518.653 382.289 522.111 380.08 527.853 377.25C538.244 372.127 549.163 366.559 552.075 365.608C554.985 364.657 558.462 364.081 569.705 364.221C576.842 364.309 579.984 369.01 584.202 371.267C587.569 373.069 590.6 373.956 595.9 375.559C600.332 376.9 603.686 376.434 605.801 378.39C609.022 381.368 609.365 387.181 610.095 391.829C610.301 393.136 610.386 394.439 610.46 401.512C610.534 408.585 610.534 421.396 610.318 429.506C609.91 444.819 608.065 449.111 605.601 456.375C603.352 463.003 598.774 471.05 596.002 478.045C594.266 482.427 594.692 489.091 592.875 494.478C591.671 498.048 590.478 501.025 587.501 503.792C584.925 506.188 581.179 506.556 577.545 507.651C572.52 509.165 570.126 512.366 567.941 515.711C566 518.682 566.192 521.962 565.681 527.394C564.38 541.246 566.619 544.207 566.988 547.19C567.432 550.786 568.224 557.694 566.778 563.905C565.819 568.023 562.275 569.654 557.991 571.839C554.48 573.63 550.507 574.024 546.936 575.331C544.015 576.4 541.338 577.653 538.141 578.46C534.217 579.451 529.511 576.42 523.072 572.274L522.887 572.155C519.927 570.249 513.322 564.332 503.449 555.914C496.126 549.67 490.392 542.026 484.971 534.8L484.879 534.676C478.737 526.49 473.014 515.201 471.104 505.877C468.267 492.035 472.255 486.238 473.206 481.427C473.909 477.872 474.445 475.316 473.797 473.14C469.8 470.073 466.611 468.337 462.899 467.96C462.092 468.176 462.991 470.148 461.962 470.592Z" fill="#44D184"/>
<path d="M465.721 472.542C465.146 472.542 464.273 472.11 461.962 470.592M461.962 470.592C457.444 467.626 448.479 460.962 438.746 452.465C433.097 447.534 429.828 443.052 426.417 438.049C423.145 433.25 420.956 423.467 418.557 410.986C415.521 395.19 419.617 388.254 421.661 383.718C422.894 380.98 427.023 378.205 433.054 373.98C439.96 369.142 444.043 369.9 449.561 368.879C453.445 368.161 465.329 368.295 473.414 369.453C479.222 370.285 490.244 377.856 495.731 381.299C499.02 383.364 509.401 383.125 515.799 382.547C518.653 382.289 522.111 380.08 527.853 377.25C538.244 372.127 549.163 366.559 552.075 365.608C554.985 364.657 558.462 364.081 569.705 364.221C576.842 364.309 579.984 369.01 584.202 371.267C587.569 373.069 590.6 373.956 595.9 375.559C600.332 376.9 603.686 376.434 605.801 378.39C609.022 381.368 609.365 387.181 610.095 391.829C610.301 393.136 610.386 394.439 610.46 401.512C610.534 408.585 610.534 421.396 610.318 429.506C609.91 444.819 608.065 449.111 605.601 456.375C603.352 463.003 598.774 471.05 596.002 478.045C594.266 482.427 594.692 489.091 592.875 494.478C591.671 498.048 590.478 501.025 587.501 503.792C584.925 506.188 581.179 506.556 577.545 507.651C572.52 509.165 570.126 512.366 567.941 515.711C566 518.682 566.192 521.962 565.681 527.394C564.38 541.246 566.619 544.207 566.988 547.19C567.432 550.786 568.224 557.694 566.778 563.905C565.819 568.023 562.275 569.654 557.991 571.839C554.48 573.63 550.507 574.024 546.936 575.331C544.015 576.4 541.338 577.653 538.141 578.46C534.217 579.451 529.511 576.42 523.072 572.274M461.962 470.592C462.991 470.148 462.092 468.176 462.899 467.96C466.611 468.337 469.8 470.073 473.797 473.14C474.445 475.316 473.909 477.872 473.206 481.427C472.255 486.238 468.267 492.035 471.104 505.877C473.014 515.201 478.737 526.49 484.879 534.676M522.887 572.155C519.927 570.249 513.322 564.332 503.449 555.914C496.126 549.67 490.392 542.026 484.971 534.8M522.887 572.155L523.072 572.274M522.887 572.155C522.949 572.195 523.011 572.235 523.072 572.274M484.879 534.676L484.971 534.8M484.879 534.676C484.909 534.718 484.94 534.759 484.971 534.8" stroke="#44D184" stroke-width="16" stroke-linecap="round"/>
</svg>
